<?xml version="1.0" encoding="UTF-8"?> <svg xmlns="http://www.w3.org/2000/svg" xmlns:xlink="http://www.w3.org/1999/xlink" xmlns:svgjs="http://svgjs.com/svgjs" version="1.1" width="512" height="512" x="0" y="0" viewBox="0 0 33 33" style="enable-background:new 0 0 512 512" xml:space="preserve" class=""><g> <g xmlns="http://www.w3.org/2000/svg"> <g> <path d="M28.5,0h-24C2.019,0,0,2.019,0,4.5v24C0,30.98,2.019,33,4.5,33h24c2.48,0,4.5-2.02,4.5-4.5v-24C33,2.019,30.98,0,28.5,0z M31.5,28.5c0,1.648-1.35,3-3,3h-24c-1.65,0-3-1.352-3-3v-24c0-1.649,1.35-3,3-3h24c1.65,0,3,1.351,3,3V28.5z" fill="#ffbf00" data-original="#000000" style="" class=""></path> <circle cx="9.25" cy="4.773" r="1.273" fill="#ffbf00" data-original="#000000" style="" class=""></circle> <circle cx="16.5" cy="4.773" r="1.273" fill="#ffbf00" data-original="#000000" style="" class=""></circle> <circle cx="23.75" cy="4.773" r="1.273" fill="#ffbf00" data-original="#000000" style="" class=""></circle> <rect x="11.134" y="12.902" width="4.596" height="4.088" fill="#ffbf00" data-original="#000000" style="" class=""></rect> <rect x="17.271" y="12.902" width="4.595" height="4.088" fill="#ffbf00" data-original="#000000" style="" class=""></rect> <rect x="23.404" y="12.902" width="4.596" height="4.088" fill="#ffbf00" data-original="#000000" style="" class=""></rect> <rect x="5" y="18.359" width="4.595" height="4.086" fill="#ffbf00" data-original="#000000" style="" class=""></rect> <rect x="11.134" y="18.359" width="4.596" height="4.086" fill="#ffbf00" data-original="#000000" style="" class=""></rect> <rect x="17.271" y="18.359" width="4.595" height="4.086" fill="#ffbf00" data-original="#000000" style="" class=""></rect> <rect x="23.404" y="18.359" width="4.596" height="4.086" fill="#ffbf00" data-original="#000000" style="" class=""></rect> <rect x="5" y="23.816" width="4.595" height="4.086" fill="#ffbf00" data-original="#000000" style="" class=""></rect> <rect x="11.134" y="23.816" width="4.596" height="4.086" fill="#ffbf00" data-original="#000000" style="" class=""></rect> <rect x="17.271" y="23.816" width="4.595" height="4.086" fill="#ffbf00" data-original="#000000" style="" class=""></rect> <rect x="23.404" y="23.816" width="4.596" height="4.086" fill="#ffbf00" data-original="#000000" style="" class=""></rect> </g> </g> <g xmlns="http://www.w3.org/2000/svg"> </g> <g xmlns="http://www.w3.org/2000/svg"> </g> <g xmlns="http://www.w3.org/2000/svg"> </g> <g xmlns="http://www.w3.org/2000/svg"> </g> <g xmlns="http://www.w3.org/2000/svg"> </g> <g xmlns="http://www.w3.org/2000/svg"> </g> <g xmlns="http://www.w3.org/2000/svg"> </g> <g xmlns="http://www.w3.org/2000/svg"> </g> <g xmlns="http://www.w3.org/2000/svg"> </g> <g xmlns="http://www.w3.org/2000/svg"> </g> <g xmlns="http://www.w3.org/2000/svg"> </g> <g xmlns="http://www.w3.org/2000/svg"> </g> <g xmlns="http://www.w3.org/2000/svg"> </g> <g xmlns="http://www.w3.org/2000/svg"> </g> <g xmlns="http://www.w3.org/2000/svg"> </g> </g></svg> 