<?xml version="1.0" encoding="UTF-8"?> <svg xmlns="http://www.w3.org/2000/svg" xmlns:xlink="http://www.w3.org/1999/xlink" xmlns:svgjs="http://svgjs.com/svgjs" version="1.1" width="512" height="512" x="0" y="0" viewBox="0 0 480.16 480.16" style="enable-background:new 0 0 512 512" xml:space="preserve" class=""><g> <g xmlns="http://www.w3.org/2000/svg"> <g> <path d="M472.08,424.16h-16v-240c-0.026-22.08-17.92-39.974-40-40H287.872c35.432-26.395,42.758-76.515,16.363-111.947 C277.841-3.219,227.72-10.545,192.288,15.849c-35.432,26.395-42.758,76.515-16.363,111.948 c4.633,6.219,10.145,11.731,16.363,16.363H64.08c-22.08,0.026-39.974,17.92-40,40v240h-16c-4.418,0-8,3.582-8,8v24 c0,13.255,10.745,24,24,24h432c13.255,0,24-10.745,24-24v-24C480.08,427.742,476.498,424.16,472.08,424.16z M176.08,80.16 c0-35.346,28.654-64,64-64c35.346,0,64,28.654,64,64c0,35.346-28.654,64-64,64C204.75,144.121,176.12,115.49,176.08,80.16z M40.08,184.16c0-13.255,10.745-24,24-24h352c13.255,0,24,10.745,24,24v240h-16v-240c0-4.418-3.582-8-8-8h-352 c-4.418,0-8,3.582-8,8v240h-16V184.16z M139.08,209.912c-1.897,1.519-3.001,3.818-3,6.248v33.472 c-12.497,4.418-19.046,18.131-14.627,30.627c4.418,12.497,18.131,19.046,30.627,14.627s19.046-18.131,14.627-30.627 c-2.416-6.835-7.793-12.211-14.627-14.627v-29.6l34.808-27.872h21.192v60.688l-21.656,21.656c-1.5,1.5-2.344,3.534-2.344,5.656 v33.472c-12.497,4.418-19.046,18.131-14.627,30.627c4.418,12.497,18.131,19.046,30.627,14.627s19.046-18.131,14.627-30.627 c-2.416-6.835-7.793-12.211-14.627-14.627v-30.16l21.656-21.656c1.5-1.5,2.344-3.534,2.344-5.656v-64h16v73.472 c-12.497,4.418-19.046,18.131-14.627,30.627c4.418,12.497,18.131,19.046,30.627,14.627s19.046-18.131,14.627-30.627 c-2.416-6.835-7.793-12.211-14.627-14.627V192.16h24v24c0,2.122,0.844,4.156,2.344,5.656l29.656,29.656v22.16 c-12.497,4.418-19.046,18.131-14.627,30.627s18.131,19.046,30.627,14.627c12.497-4.418,19.046-18.131,14.627-30.627 c-2.416-6.835-7.793-12.211-14.627-14.627V248.16c0-2.122-0.844-4.156-2.344-5.656l-29.656-29.656V192.16h32v24h16v-24h64v232 h-136c-2.122,0-4.156,0.844-5.656,2.344l-3.312,3.312c-1.502,1.502-3.54,2.346-5.664,2.344h-34.736 c-2.124,0.002-4.162-0.842-5.664-2.344l-3.312-3.312c-1.5-1.5-3.534-2.344-5.656-2.344h-136v-232h89.192L139.08,209.912z M152.08,272.16c0,4.418-3.582,8-8,8s-8-3.582-8-8s3.582-8,8-8S152.08,267.742,152.08,272.16z M200.08,336.16c0,4.418-3.582,8-8,8 s-8-3.582-8-8s3.582-8,8-8S200.08,331.742,200.08,336.16z M248.08,280.16c4.418,0,8,3.582,8,8s-3.582,8-8,8s-8-3.582-8-8 S243.662,280.16,248.08,280.16z M320.08,288.16c4.418,0,8,3.582,8,8s-3.582,8-8,8s-8-3.582-8-8S315.662,288.16,320.08,288.16z M464.08,456.16c0,4.418-3.582,8-8,8h-432c-4.418,0-8-3.582-8-8v-16h188.688l0.968,0.968c4.491,4.52,10.605,7.052,16.976,7.032 h34.736c6.371,0.02,12.485-2.512,16.976-7.032l0.968-0.968H464.08V456.16z" fill="#ffbf00" data-original="#000000" style="" class=""></path> </g> </g> <g xmlns="http://www.w3.org/2000/svg"> <g> <path d="M265.952,80.16c8.837-9.88,7.991-25.052-1.888-33.889c-4.396-3.932-10.086-6.107-15.984-6.111v-8h-16v8h-16 c-4.418,0-8,3.582-8,8v64c0,4.418,3.582,8,8,8h16v8h16v-8c13.255-0.009,23.993-10.762,23.983-24.017 C272.06,90.246,269.884,84.556,265.952,80.16z M248.08,104.16h-24v-16h24c4.418,0,8,3.582,8,8S252.498,104.16,248.08,104.16z M248.08,72.16h-24v-16h24c4.418,0,8,3.582,8,8S252.498,72.16,248.08,72.16z" fill="#ffbf00" data-original="#000000" style="" class=""></path> </g> </g> <g xmlns="http://www.w3.org/2000/svg"> <g> <path d="M112.08,0.16h-16c0,17.673-14.327,32-32,32v16c17.673,0,32,14.327,32,32h16c0-17.673,14.327-32,32-32v-16 C126.407,32.16,112.08,17.833,112.08,0.16z M104.08,53.76c-3.546-5.388-8.135-10.012-13.496-13.6 c5.361-3.588,9.95-8.212,13.496-13.6c3.546,5.388,8.135,10.012,13.496,13.6C112.215,43.748,107.626,48.372,104.08,53.76z" fill="#ffbf00" data-original="#000000" style="" class=""></path> </g> </g> <g xmlns="http://www.w3.org/2000/svg"> </g> <g xmlns="http://www.w3.org/2000/svg"> </g> <g xmlns="http://www.w3.org/2000/svg"> </g> <g xmlns="http://www.w3.org/2000/svg"> </g> <g xmlns="http://www.w3.org/2000/svg"> </g> <g xmlns="http://www.w3.org/2000/svg"> </g> <g xmlns="http://www.w3.org/2000/svg"> </g> <g xmlns="http://www.w3.org/2000/svg"> </g> <g xmlns="http://www.w3.org/2000/svg"> </g> <g xmlns="http://www.w3.org/2000/svg"> </g> <g xmlns="http://www.w3.org/2000/svg"> </g> <g xmlns="http://www.w3.org/2000/svg"> </g> <g xmlns="http://www.w3.org/2000/svg"> </g> <g xmlns="http://www.w3.org/2000/svg"> </g> <g xmlns="http://www.w3.org/2000/svg"> </g> </g></svg> 