<?xml version="1.0" encoding="UTF-8"?> <svg xmlns="http://www.w3.org/2000/svg" xmlns:xlink="http://www.w3.org/1999/xlink" xmlns:svgjs="http://svgjs.com/svgjs" version="1.1" width="512" height="512" x="0" y="0" viewBox="0 0 480.022 480.022" style="enable-background:new 0 0 512 512" xml:space="preserve" class=""><g> <g xmlns="http://www.w3.org/2000/svg"> <g> <path d="M472.022,32.016h-24c0-17.673-14.327-32-32-32h-24c-4.418,0-8,3.582-8,8v32h-144.72 c-4.382-26.109-29.1-43.723-55.209-39.341c-20.328,3.412-36.2,19.437-39.415,39.797c-29.256,3.427-52.405,26.361-56.104,55.584 c-0.184,0-0.368-0.04-0.552-0.04c-35.346-0.008-64.007,28.639-64.015,63.985c-0.002,6.723,1.056,13.405,3.135,19.799 c-28.869,20.311-35.806,60.178-15.496,89.047c5.517,7.841,12.726,14.34,21.096,19.017c-17.817,30.42-7.601,69.523,22.818,87.341 c7.646,4.478,16.14,7.315,24.942,8.331c3.84,32.183,31.109,56.429,63.52,56.48c0.24,0,0.48-0.048,0.712-0.048 c4.361,26.113,29.064,43.746,55.177,39.385c17.214-2.875,31.506-14.878,37.311-31.337h234.8c4.418,0,8-3.582,8-8v-400 C480.022,35.597,476.44,32.016,472.022,32.016z M224.022,199.296c-26.134-4.445-43.717-29.234-39.273-55.368 c2.343-13.778,10.575-25.85,22.545-33.064l-8.256-13.696c-27.439,16.483-38.463,50.714-25.8,80.112 c-21.758,5.038-37.178,24.402-37.216,46.736h16c0.044-16.953,13.32-30.92,30.248-31.824c10.386,12.862,25.35,21.203,41.752,23.272 v88.552h-16c-2.682,0.016-5.358,0.257-8,0.72v-0.72c-0.026-22.08-17.92-39.974-40-40v16c13.255,0,24,10.745,24,24v6.496 c-14.831,8.563-23.977,24.379-24,41.504h16c0-17.673,14.327-32,32-32h16v112c0,17.673-14.327,32-32,32s-32-14.327-32-32 c0-10.072,4.742-19.557,12.8-25.6l-9.6-12.8c-9.839,7.351-16.45,18.226-18.448,30.344c-0.248,0-0.496,0.056-0.744,0.056 c-23.641-0.027-43.743-17.263-47.376-40.624c3.269-0.424,6.501-1.103,9.664-2.032l-4.576-15.336 c-25.41,7.557-52.135-6.915-59.692-32.325c-7.557-25.41,6.915-52.135,32.325-59.692c11.341-3.373,23.528-2.438,34.222,2.625 l6.864-14.448c-24.505-11.631-53.682-6.54-72.8,12.704c-23.722-11.734-33.44-40.477-21.705-64.199 c8.099-16.372,24.8-26.716,43.065-26.673v-16c-7.654,0.015-15.242,1.411-22.4,4.12c-6.791-25.524,8.395-51.721,33.92-58.513 c4.071-1.083,8.267-1.624,12.48-1.607c0.168,0,0.344,0,0.512,0c2.353,19.245,13.358,36.365,29.888,46.496l8.408-13.6 c-22.56-13.921-29.564-43.495-15.643-66.055c7.401-11.995,19.701-20.13,33.635-22.249c1.915,10.488,7.262,20.043,15.2,27.16 l10.68-11.92c-13.179-11.775-14.318-32.004-2.543-45.183s32.004-14.318,45.183-2.543c6.803,6.078,10.689,14.771,10.68,23.895 V199.296z M400.022,16.016h16c8.837,0,16,7.163,16,16v324.296c-4.859-2.822-10.38-4.305-16-4.296h-16V16.016z M240.022,56.016h144 v304c0,4.418,3.582,8,8,8h24c8.837,0,16,7.163,16,16s-7.163,16-16,16h-176V56.016z M464.022,432.016h-224v-16h176 c17.673,0,32-14.327,32-32v-336h16V432.016z" fill="#ffbf00" data-original="#000000" style="" class=""></path> </g> </g> <g xmlns="http://www.w3.org/2000/svg"> <g> <rect x="280.022" y="80.016" width="16" height="16" fill="#ffbf00" data-original="#000000" style="" class=""></rect> </g> </g> <g xmlns="http://www.w3.org/2000/svg"> <g> <rect x="312.022" y="80.016" width="48" height="16" fill="#ffbf00" data-original="#000000" style="" class=""></rect> </g> </g> <g xmlns="http://www.w3.org/2000/svg"> <g> <rect x="264.022" y="112.016" width="96" height="16" fill="#ffbf00" data-original="#000000" style="" class=""></rect> </g> </g> <g xmlns="http://www.w3.org/2000/svg"> <g> <rect x="264.022" y="144.016" width="96" height="16" fill="#ffbf00" data-original="#000000" style="" class=""></rect> </g> </g> <g xmlns="http://www.w3.org/2000/svg"> <g> <rect x="264.022" y="176.016" width="64" height="16" fill="#ffbf00" data-original="#000000" style="" class=""></rect> </g> </g> <g xmlns="http://www.w3.org/2000/svg"> <g> <rect x="280.022" y="264.016" width="16" height="16" fill="#ffbf00" data-original="#000000" style="" class=""></rect> </g> </g> <g xmlns="http://www.w3.org/2000/svg"> <g> <rect x="312.022" y="264.016" width="48" height="16" fill="#ffbf00" data-original="#000000" style="" class=""></rect> </g> </g> <g xmlns="http://www.w3.org/2000/svg"> <g> <rect x="264.022" y="296.016" width="96" height="16" fill="#ffbf00" data-original="#000000" style="" class=""></rect> </g> </g> <g xmlns="http://www.w3.org/2000/svg"> <g> <rect x="264.022" y="328.016" width="96" height="16" fill="#ffbf00" data-original="#000000" style="" class=""></rect> </g> </g> <g xmlns="http://www.w3.org/2000/svg"> <g> <rect x="264.022" y="360.016" width="64" height="16" fill="#ffbf00" data-original="#000000" style="" class=""></rect> </g> </g> <g xmlns="http://www.w3.org/2000/svg"> <g> <rect x="304.022" y="464.016" width="120" height="16" fill="#ffbf00" data-original="#000000" style="" class=""></rect> </g> </g> <g xmlns="http://www.w3.org/2000/svg"> <g> <rect x="440.022" y="464.016" width="16" height="16" fill="#ffbf00" data-original="#000000" style="" class=""></rect> </g> </g> <g xmlns="http://www.w3.org/2000/svg"> </g> <g xmlns="http://www.w3.org/2000/svg"> </g> <g xmlns="http://www.w3.org/2000/svg"> </g> <g xmlns="http://www.w3.org/2000/svg"> </g> <g xmlns="http://www.w3.org/2000/svg"> </g> <g xmlns="http://www.w3.org/2000/svg"> </g> <g xmlns="http://www.w3.org/2000/svg"> </g> <g xmlns="http://www.w3.org/2000/svg"> </g> <g xmlns="http://www.w3.org/2000/svg"> </g> <g xmlns="http://www.w3.org/2000/svg"> </g> <g xmlns="http://www.w3.org/2000/svg"> </g> <g xmlns="http://www.w3.org/2000/svg"> </g> <g xmlns="http://www.w3.org/2000/svg"> </g> <g xmlns="http://www.w3.org/2000/svg"> </g> <g xmlns="http://www.w3.org/2000/svg"> </g> </g></svg> 