<?xml version="1.0" encoding="UTF-8"?> <svg xmlns="http://www.w3.org/2000/svg" xmlns:xlink="http://www.w3.org/1999/xlink" xmlns:svgjs="http://svgjs.com/svgjs" version="1.1" width="512" height="512" x="0" y="0" viewBox="0 0 512.004 512.004" style="enable-background:new 0 0 512 512" xml:space="preserve"><g><g xmlns="http://www.w3.org/2000/svg"><g><path d="m34.821 110.86c3.905 3.905 10.237 3.905 14.143 0s3.905-10.237 0-14.143l-28.229-28.228 47.755-47.755 121.368 121.368c1.875 1.875 4.419 2.929 7.071 2.929s5.196-1.054 7.071-2.929l6.655-6.656 9.004 84.214-84.214-9.003 6.657-6.657c1.875-1.875 2.929-4.419 2.929-7.071s-1.054-5.196-2.929-7.071l-29.5-29.5c-3.905-3.905-10.237-3.905-14.143 0s-3.905 10.237 0 14.143l22.429 22.429-3.149 3.149c-4.75 4.745-6.287 11.695-4.011 18.139 2.317 6.563 8.037 11.095 14.919 11.827l92.026 9.838c.688.08 1.374.12 2.056.12 4.538 0 8.872-1.754 12.134-4.97 3.765-3.71 5.601-8.876 5.037-14.18l-9.789-91.551c-.475-6.884-4.938-12.914-11.452-15.426-6.552-2.528-13.67-1.047-18.58 3.861l-3.152 3.152-115.562-115.565c-3.433-3.433-8.005-5.323-12.875-5.323s-9.442 1.891-12.874 5.323l-50.292 50.291c-7.099 7.099-7.099 18.649 0 25.749z" fill="#ffbf00" data-original="#000000" style=""></path><path d="m220.677 272.121-92.023 9.839c-6.889.732-12.607 5.264-14.925 11.827-2.276 6.444-.739 13.395 4.008 18.136l3.153 3.153-115.566 115.564c-7.098 7.099-7.098 18.649 0 25.749l50.292 50.292c3.55 3.549 8.211 5.324 12.874 5.324 4.662 0 9.325-1.775 12.875-5.324l115.564-115.565 3.152 3.153c4.909 4.908 12.027 6.388 18.578 3.861 6.514-2.512 10.979-8.542 11.453-15.426l9.789-91.559c.563-5.297-1.273-10.463-5.037-14.173-3.753-3.699-8.922-5.463-14.187-4.851zm-10.021 104.436-6.656-6.656c-3.905-3.905-10.237-3.905-14.143 0l-121.367 121.368-47.755-47.755 121.368-121.368c1.875-1.875 2.929-4.419 2.929-7.071s-1.054-5.196-2.929-7.071l-6.656-6.656 84.213-9.003z" fill="#ffbf00" data-original="#000000" style=""></path><path d="m289.274 240.002c.681 0 1.367-.04 2.055-.12l92.021-9.838c6.888-.732 12.607-5.264 14.925-11.827 2.276-6.443.739-13.394-4.007-18.136l-3.153-3.153 115.565-115.565c7.099-7.099 7.098-18.649 0-25.749l-50.291-50.29c-3.433-3.433-8.005-5.323-12.875-5.323s-9.442 1.891-12.875 5.323l-115.564 115.564-3.153-3.153c-4.908-4.908-12.026-6.389-18.579-3.861-6.514 2.512-10.978 8.542-11.452 15.425l-9.789 91.558c-.563 5.297 1.273 10.463 5.038 14.173 3.264 3.217 7.596 4.972 12.134 4.972zm12.074-104.556 6.656 6.656c3.905 3.905 10.237 3.905 14.143 0l121.367-121.368 47.756 47.755-121.368 121.368c-1.875 1.875-2.929 4.419-2.929 7.071s1.054 5.196 2.929 7.071l6.656 6.656-84.213 9.003z" fill="#ffbf00" data-original="#000000" style=""></path><path d="m391.115 315.075 3.149-3.149c4.75-4.745 6.287-11.696 4.011-18.139-2.318-6.563-8.037-11.095-14.919-11.826l-92.028-9.839c-5.267-.618-10.436 1.151-14.189 4.851-3.764 3.71-5.6 8.875-5.037 14.179l9.789 91.552c.474 6.883 4.938 12.914 11.452 15.425 6.553 2.528 13.67 1.047 18.58-3.861l3.152-3.153 115.565 115.565c3.55 3.549 8.212 5.323 12.874 5.323s9.325-1.775 12.874-5.324l50.292-50.292c7.099-7.099 7.099-18.65 0-25.749zm52.399 176.194-121.367-121.368c-1.953-1.953-4.512-2.929-7.071-2.929s-5.119.976-7.071 2.929l-6.656 6.656-9.003-84.213 84.213 9.003-6.656 6.656c-1.875 1.875-2.929 4.419-2.929 7.071s1.054 5.196 2.929 7.071l121.367 121.369z" fill="#ffbf00" data-original="#000000" style=""></path><path d="m73.706 125.61c-5.523 0-9.996 4.477-9.996 10s4.48 10 10.003 10 10-4.477 10-10-4.477-10-10-10z" fill="#ffbf00" data-original="#000000" style=""></path></g></g></g></svg> 