<?xml version="1.0" encoding="UTF-8"?> <svg xmlns="http://www.w3.org/2000/svg" xmlns:xlink="http://www.w3.org/1999/xlink" xmlns:svgjs="http://svgjs.com/svgjs" version="1.1" width="512" height="512" x="0" y="0" viewBox="0 0 64 64" style="enable-background:new 0 0 512 512" xml:space="preserve" class=""><g><g xmlns="http://www.w3.org/2000/svg"><g><g><path d="m57 21h-8v-7h8z" fill="#ffffff" data-original="#f0bc5e" style="" class=""></path></g></g><g><g><path d="m15 29h-8v-7h8z" fill="#ffffff" data-original="#f0bc5e" style="" class=""></path></g></g><path d="m60 13h-6v-3.216l5.588-.828c2.181-.324 3.692-2.361 3.369-4.539-.285-1.947-1.987-3.417-3.96-3.417-.185 0-.371.013-.583.042l-21.33 3.16c-1.278-1.352-3.082-2.202-5.084-2.202-2.739 0-5.109 1.585-6.258 3.883l-21.33 3.16c-2.181.324-3.692 2.362-3.369 4.541.286 1.947 1.987 3.416 3.956 3.416.193 0 .387-.014.587-.043l4.414-.654v4.697h-6c-1.654 0-3 1.346-3 3v10c0 1.654 1.346 3 3 3h14c1.654 0 3-1.346 3-3v-2.424-7.576c0-1.654-1.346-3-3-3h-6v-4.994l14.912-2.209c.586.623 1.294 1.131 2.088 1.509v15.951c-1.341-1.411-3.245-2.299-5.382-2.299-1.443 0-2.618 1.174-2.618 2.618 0 .404.096.809.276 1.172l1.165 2.331c.366.73.559 1.547.559 2.363v4.108c0 1.076.253 2.152.73 3.113l2.27 4.571v1.95c-1.161.414-2 1.514-2 2.816v9h22v-9c0-1.302-.839-2.402-2-2.816v-1.851l1.6-2.133c.903-1.204 1.4-2.695 1.4-4.2v-11c0-1.654-1.346-3-3-3-.395 0-.77.081-1.116.22-.345-1.275-1.501-2.22-2.884-2.22-.771 0-1.468.301-2 .78-.532-.48-1.229-.78-2-.78-.352 0-.686.072-1 .184v-11.878c1.432-.682 2.577-1.808 3.266-3.191l13.734-2.034v2.919h-6c-1.654 0-3 1.346-3 3v10c0 1.654 1.346 3 3 3h14c1.654 0 3-1.346 3-3v-10c0-1.654-1.346-3-3-3zm-41 11v10c0 .551-.448 1-1 1h-14c-.552 0-1-.449-1-1v-10c0-.551.448-1 1-1h14c.552 0 1 .449 1 1zm-13.706-9.022c-1.105.16-2.114-.616-2.272-1.687-.161-1.09.595-2.108 1.685-2.271l20.373-3.018c-.047.327-.08.659-.08.998 0 1.048.245 2.05.67 2.959zm38.706 46.022h-18v-7c0-.551.448-1 1-1h16c.552 0 1 .449 1 1zm-8-32c.552 0 1 .449 1 1v4h2v-4c0-.551.448-1 1-1s1 .449 1 1v2 2h2v-2c0-.551.448-1 1-1s1 .449 1 1v11c0 1.075-.355 2.141-1 3l-2 2.667v2.333h-14v-2.234l-2.479-4.992c-.34-.687-.521-1.456-.521-2.224v-4.108c0-1.125-.267-2.252-.77-3.259l-1.165-2.33c-.043-.085-.065-.182-.065-.277 0-.341.277-.618.714-.618 2.915 0 5.286 2.372 5.286 5.287v1.713 2h2v-2-1.713-21.245c0-.551.448-1 1-1s1 .449 1 1v15 4h2v-4c0-.551.448-1 1-1zm-1.511-15.672c-.539-.8-1.453-1.328-2.489-1.328s-1.95.528-2.489 1.328c-1.529-.881-2.511-2.518-2.511-4.328 0-2.757 2.243-5 5-5s5 2.243 5 5c0 1.81-.982 3.447-2.511 4.328zm3.845-7.289 20.366-3.017c.106-.015.202-.022.297-.022.987 0 1.839.734 1.981 1.71.161 1.088-.595 2.106-1.685 2.268l-20.372 3.018c.048-.327.079-.659.079-.996 0-1.059-.243-2.06-.666-2.961zm22.666 19.961c0 .551-.448 1-1 1h-14c-.552 0-1-.449-1-1v-10c0-.551.448-1 1-1h14c.552 0 1 .449 1 1z" fill="#ffbf00" data-original="#000000" style="" class=""></path></g></g></svg> 